TITLE ""
FILE "Step2_Track50.mp3" MP3
  TRACK 01 AUDIO
    TITLE "Step2_Track50_01"
    INDEX 01 00:00:00
  TRACK 02 AUDIO
    TITLE "Step2_Track50_02"
    INDEX 01 00:00:24
  TRACK 03 AUDIO
    TITLE "Step2_Track50_03"
    INDEX 01 00:01:59
  TRACK 04 AUDIO
    TITLE "Step2_Track50_04"
    INDEX 01 00:02:29
  TRACK 05 AUDIO
    TITLE "Step2_Track50_05"
    INDEX 01 00:03:26
  TRACK 06 AUDIO
    TITLE "Step2_Track50_06"
    INDEX 01 00:03:52
  TRACK 07 AUDIO
    TITLE "Step2_Track50_07"
    INDEX 01 00:05:31
  TRACK 08 AUDIO
    TITLE "Step2_Track50_08"
    INDEX 01 00:05:58
  TRACK 09 AUDIO
    TITLE "Step2_Track50_09"
    INDEX 01 00:06:56
  TRACK 10 AUDIO
    TITLE "Step2_Track50_10"
    INDEX 01 00:07:04
  TRACK 11 AUDIO
    TITLE "Step2_Track50_11"
    INDEX 01 00:08:65
  TRACK 12 AUDIO
    TITLE "Step2_Track50_12"
    INDEX 01 00:09:17
  TRACK 13 AUDIO
    TITLE "Step2_Track50_13"
    INDEX 01 00:10:15
  TRACK 14 AUDIO
    TITLE "Step2_Track50_14"
    INDEX 01 00:10:44
  TRACK 15 AUDIO
    TITLE "Step2_Track50_15"
    INDEX 01 00:12:72
  TRACK 16 AUDIO
    TITLE "Step2_Track50_16"
    INDEX 01 00:13:19
  TRACK 17 AUDIO
    TITLE "Step2_Track50_17"
    INDEX 01 00:14:14
  TRACK 18 AUDIO
    TITLE "Step2_Track50_18"
    INDEX 01 00:14:28
  TRACK 19 AUDIO
    TITLE "Step2_Track50_19"
    INDEX 01 00:16:21
  TRACK 20 AUDIO
    TITLE "Step2_Track50_20"
    INDEX 01 00:16:49
  TRACK 21 AUDIO
    TITLE "Step2_Track50_21"
    INDEX 01 00:17:38
  TRACK 22 AUDIO
    TITLE "Step2_Track50_22"
    INDEX 01 00:17:40
  TRACK 23 AUDIO
    TITLE "Step2_Track50_23"
    INDEX 01 00:19:43
  TRACK 24 AUDIO
    TITLE "Step2_Track50_24"
    INDEX 01 00:19:53
  TRACK 25 AUDIO
    TITLE "Step2_Track50_25"
    INDEX 01 00:20:56
  TRACK 26 AUDIO
    TITLE "Step2_Track50_26"
    INDEX 01 00:20:70
  TRACK 27 AUDIO
    TITLE "Step2_Track50_27"
    INDEX 01 00:22:63
  TRACK 28 AUDIO
    TITLE "Step2_Track50_28"
    INDEX 01 00:23:09
  TRACK 29 AUDIO
    TITLE "Step2_Track50_29"
    INDEX 01 00:24:13
  TRACK 30 AUDIO
    TITLE "Step2_Track50_30"
    INDEX 01 00:24:21
  TRACK 31 AUDIO
    TITLE "Step2_Track50_31"
    INDEX 01 00:26:45
  TRACK 32 AUDIO
    TITLE "Step2_Track50_32"
    INDEX 01 00:26:70
  TRACK 33 AUDIO
    TITLE "Step2_Track50_33"
    INDEX 01 00:27:58
  TRACK 34 AUDIO
    TITLE "Step2_Track50_34"
    INDEX 01 00:27:60
  TRACK 35 AUDIO
    TITLE "Step2_Track50_35"
    INDEX 01 00:29:26
  TRACK 36 AUDIO
    TITLE "Step2_Track50_36"
    INDEX 01 00:29:55
  TRACK 37 AUDIO
    TITLE "Step2_Track50_37"
    INDEX 01 00:30:60
  TRACK 38 AUDIO
    TITLE "Step2_Track50_38"
    INDEX 01 00:30:62
  TRACK 39 AUDIO
    TITLE "Step2_Track50_39"
    INDEX 01 00:32:48
  TRACK 40 AUDIO
    TITLE "Step2_Track50_40"
    INDEX 01 00:32:69
  TRACK 41 AUDIO
    TITLE "Step2_Track50_41"
    INDEX 01 00:33:67
  TRACK 42 AUDIO
    TITLE "Step2_Track50_42"
    INDEX 01 00:34:13
  TRACK 43 AUDIO
    TITLE "Step2_Track50_43"
    INDEX 01 00:36:36
